<!-- Generated by IcoMoon.io -->
<svg version="1.1" xmlns="http://www.w3.org/2000/svg" width="20" height="20" viewBox="0 0 20 20">
<title>close the searchbar</title>
<path d="M4.756 10.589l4.411-4.411v9.655c0 0.46 0.373 0.833 0.833 0.833s0.833-0.373 0.833-0.833v-9.655l4.411 4.411c0.326 0.326 0.853 0.326 1.178 0s0.326-0.853 0-1.178l-5.833-5.833c-0.077-0.077-0.168-0.138-0.27-0.181s-0.211-0.063-0.319-0.063c-0.213 0-0.427 0.082-0.589 0.244l-5.833 5.833c-0.326 0.326-0.326 0.853 0 1.178s0.853 0.326 1.178 0z"></path>
</svg>
