<svg width="144" height="144" viewBox="0 0 144 144" fill="none" xmlns="http://www.w3.org/2000/svg">
<path d="M142.6 57.8988H136.8V57.6H72V86.4H112.691C106.754 103.165 90.8028 115.2 72 115.2C48.1428 115.2 28.8 95.8572 28.8 72C28.8 48.1428 48.1428 28.8 72 28.8C83.0124 28.8 93.0312 32.9544 100.66 39.7404L121.025 19.3752C108.166 7.3908 90.9648 0 72 0C32.238 0 0 32.238 0 72C0 111.762 32.238 144 72 144C111.762 144 144 111.762 144 72C144 67.1724 143.503 62.46 142.6 57.8988Z" fill="#F4B400"/>
<path d="M8.30161 38.4876L31.9572 55.836C38.358 39.9888 53.8596 28.8 72 28.8C83.0124 28.8 93.0312 32.9544 100.66 39.7404L121.025 19.3752C108.166 7.3908 90.9648 0 72 0C44.3448 0 20.3616 15.6132 8.30161 38.4876Z" fill="#DB4437"/>
<path d="M72 144C90.5976 144 107.496 136.883 120.272 125.309L97.9884 106.452C90.7596 111.928 81.774 115.2 72 115.2C53.2728 115.2 37.3716 103.259 31.3812 86.5944L7.90202 104.684C19.818 128.002 44.0172 144 72 144Z" fill="#0F9D58"/>
<path d="M142.6 57.8988H136.8V57.6H72V86.4H112.691C109.84 94.4532 104.659 101.398 97.9776 106.456C97.9812 106.452 97.9848 106.452 97.9884 106.448L120.272 125.305C118.696 126.738 144 108 144 72C144 67.1724 143.503 62.46 142.6 57.8988Z" fill="#4285F4"/>
</svg>
