<!-- Generated by IcoMoon.io -->
<svg version="1.1" xmlns="http://www.w3.org/2000/svg" width="20" height="20" viewBox="0 0 20 20">
<title>open up sidebar</title>
<path d="M2.5 10.833h15c0.46 0 0.833-0.373 0.833-0.833s-0.373-0.833-0.833-0.833h-15c-0.46 0-0.833 0.373-0.833 0.833s0.373 0.833 0.833 0.833zM2.5 5.833h15c0.46 0 0.833-0.373 0.833-0.833s-0.373-0.833-0.833-0.833h-15c-0.46 0-0.833 0.373-0.833 0.833s0.373 0.833 0.833 0.833zM2.5 15.833h15c0.46 0 0.833-0.373 0.833-0.833s-0.373-0.833-0.833-0.833h-15c-0.46 0-0.833 0.373-0.833 0.833s0.373 0.833 0.833 0.833z"></path>
</svg>
