<svg width="97" height="91" viewBox="0 0 97 91" fill="none" xmlns="http://www.w3.org/2000/svg">
<path d="M51.3141 9.57676L51.3141 9.57679L51.3221 9.56816C56.0647 4.42863 62.7034 1.50926 69.6538 1.50057C76.5972 1.51197 83.2278 4.43194 87.9627 9.56901C98.0105 20.5101 98.0124 37.4239 87.9687 48.3673C87.9668 48.3694 87.9648 48.3715 87.9629 48.3736L49.9305 88.8802L49.9297 88.881C49.9055 88.9069 49.8806 88.9321 49.855 88.9565L49.8545 88.957C49.0678 89.7093 47.8308 89.6763 47.0843 88.8806L47.0837 88.88L9.03775 48.3736C9.03589 48.3716 9.03404 48.3695 9.03219 48.3675C-1.01238 37.4231 -1.01073 20.5086 9.03715 9.56616C9.45393 9.11331 9.88716 8.6761 10.3359 8.25495C20.4584 -1.24027 36.284 -0.654616 45.6908 9.5667L45.6908 9.56674L45.7002 9.57676L47.4127 11.4038L48.5071 12.5713L49.6015 11.4038L51.3141 9.57676Z" stroke="black" stroke-width="3"/>
</svg>
