<svg width="91" height="85" viewBox="0 0 91 85" fill="none" xmlns="http://www.w3.org/2000/svg">
<path d="M83.5582 7.94908C78.8513 2.88984 72.2557 0.0112012 65.3456 0.000529753C58.4299 0.00853337 51.8274 2.88564 47.1133 7.94584L45.5067 9.64356L43.9001 7.94584C34.5459 -2.12176 18.8015 -2.69993 8.73386 6.65421C8.28775 7.06887 7.85689 7.49954 7.44222 7.94584C-2.48074 18.649 -2.48074 35.1902 7.44222 45.8933L43.1456 83.5448C44.3808 84.8488 46.4393 84.9047 47.7433 83.6694C47.786 83.629 47.8275 83.5875 47.8679 83.5448L83.5584 45.8933C93.4806 35.1913 93.4806 18.6511 83.5582 7.94908Z" fill="#E86D1A"/>
</svg>
