<svg width="492" height="455" viewBox="0 0 492 455" fill="none" xmlns="http://www.w3.org/2000/svg">
<path d="M293.25 319.344C293.25 293.883 272.609 273.246 247.152 273.246C221.691 273.246 201.051 293.883 201.051 319.344C201.051 344.805 221.691 365.445 247.152 365.445C272.597 365.414 293.219 344.793 293.25 319.344ZM213.043 319.344C213.043 300.512 228.308 285.246 247.14 285.246C265.976 285.246 281.242 300.512 281.242 319.344C281.242 338.176 265.976 353.445 247.14 353.445C228.32 353.422 213.066 338.168 213.043 319.344Z" fill="black"/>
<path d="M167.812 448.25C167.812 451.562 170.5 454.25 173.812 454.25H318.187C321.504 454.25 324.187 451.562 324.187 448.25C324.187 405.066 289.183 370.062 246 370.062C202.82 370.062 167.812 405.066 167.812 448.25ZM246 382.062C280.215 382.105 308.773 408.18 311.918 442.25H180.082C183.226 408.18 211.785 382.105 246 382.062V382.062Z" fill="black"/>
<path d="M368.855 319.344C368.855 344.805 389.496 365.445 414.953 365.445C440.414 365.445 461.054 344.805 461.054 319.344C461.054 293.883 440.414 273.246 414.953 273.246C389.507 273.273 368.886 293.898 368.855 319.344V319.344ZM449.062 319.344C449.062 338.176 433.797 353.445 414.961 353.445C396.129 353.445 380.863 338.176 380.863 319.344C380.863 300.512 396.129 285.246 414.961 285.246C433.785 285.269 449.039 300.519 449.062 319.344V319.344Z" fill="black"/>
<path d="M413.812 370.062C370.652 370.109 335.675 405.09 335.625 448.25C335.625 451.562 338.312 454.25 341.625 454.25H486C489.312 454.25 492 451.562 492 448.25C491.953 405.09 456.972 370.109 413.812 370.062ZM347.902 442.25C351.004 408.16 379.586 382.058 413.816 382.058C448.05 382.058 476.632 408.16 479.734 442.25H347.902Z" fill="black"/>
<path d="M79.332 365.449C104.793 365.449 125.434 344.809 125.434 319.348C125.434 293.887 104.793 273.25 79.332 273.25C53.875 273.25 33.2343 293.887 33.2343 319.348C33.2656 344.797 53.8867 365.418 79.332 365.449ZM79.332 285.242C98.1679 285.242 113.434 300.508 113.434 319.34C113.434 338.172 98.1679 353.441 79.332 353.441C60.5 353.441 45.2343 338.172 45.2343 319.34C45.2578 300.516 60.5117 285.266 79.332 285.242Z" fill="black"/>
<path d="M156.375 448.25C156.477 420.25 141.594 394.332 117.363 380.305C93.1289 366.273 63.2461 366.273 39.0117 380.305C14.7812 394.332 -0.101564 420.25 -2.29938e-06 448.25C-2.29938e-06 451.562 2.6875 454.25 6 454.25H150.375C153.688 454.25 156.375 451.562 156.375 448.25ZM12.2773 442.25C15.3789 408.16 43.9609 382.058 78.1914 382.058C112.426 382.058 141.008 408.16 144.109 442.25H12.2773Z" fill="black"/>
<path d="M87.8749 255.5H404.125C418.477 255.485 430.109 243.852 430.125 229.5V26.0002C430.109 11.6487 418.477 0.0158539 404.125 0.000228882H87.8749C73.5234 0.0158539 61.8906 11.6487 61.8749 26.0002V229.5C61.8906 243.852 73.5234 255.485 87.8749 255.5ZM73.8749 26.0002C73.8828 18.2737 80.1484 12.008 87.8749 12.0002H404.125C411.855 12.008 418.117 18.2737 418.125 26.0002V229.5C418.117 237.231 411.855 243.492 404.125 243.5H87.8749C80.1484 243.492 73.8828 237.231 73.8749 229.5V26.0002Z" fill="black"/>
</svg>
