<!-- Generated by IcoMoon.io -->
<svg version="1.1" xmlns="http://www.w3.org/2000/svg" width="640" height="640" viewBox="0 0 640 640">
<title></title>
<g id="icomoon-ignore">
</g>
<path fill="#000" d="M469.12 501.12c-46.337 46.387-110.378 75.081-181.12 75.081-141.385 0-256-114.615-256-256s114.615-256 256-256c141.314 0 255.886 114.501 256 255.788v0.011h-64c0-0.050 0-0.109 0-0.169 0-106.039-85.961-192-192-192s-192 85.961-192 192c0 106.039 85.961 192 192 192 52.978 0 100.943-21.456 135.682-56.153l-0.002 0.002 45.44 45.44zM384 320h256l-128 128-128-128z"></path>
</svg>
