<svg width="151" height="151" viewBox="0 0 151 151" fill="none" xmlns="http://www.w3.org/2000/svg">
<g id="sun">
<path id="circle" d="M102.165 48.6356C95.3737 41.8446 85.7864 37.4504 75.4001 37.4504C65.0139 37.4504 55.4266 41.6448 48.6356 48.6356C41.8446 55.4266 37.4504 65.0139 37.4504 75.4001C37.4504 85.7864 41.8446 95.3737 48.6356 102.165C55.4266 108.956 65.0139 113.35 75.4001 113.35C85.7864 113.35 95.3737 109.155 102.165 102.165C108.956 95.3737 113.35 85.7864 113.35 75.4001C113.35 65.0139 109.155 55.4266 102.165 48.6356ZM94.9742 94.9742C89.9808 99.9676 82.9901 102.964 75.4001 102.964C67.8102 102.964 60.8195 99.9676 55.8261 94.9742C50.8327 89.9808 47.8367 82.9901 47.8367 75.4001C47.8367 67.8102 50.8327 60.8194 55.8261 55.8261C60.8195 50.8327 67.8102 47.8366 75.4001 47.8366C82.9901 47.8366 89.9808 50.8327 94.9742 55.8261C99.9676 60.8194 102.964 67.8102 102.964 75.4001C102.964 82.9901 99.9676 89.9808 94.9742 94.9742Z" fill="white"/>
<g id="lines">
<path id="Vector" d="M145.807 70.3069H130.427C127.631 70.3069 125.234 72.7037 125.234 75.5C125.234 78.2963 127.631 80.6931 130.427 80.6931H145.807C148.603 80.6931 151 78.2963 151 75.5C151 72.7037 148.603 70.3069 145.807 70.3069Z" fill="white"/>
<path id="Vector_2" d="M75.5 125.234C72.7037 125.234 70.3069 127.631 70.3069 130.427V145.807C70.3069 148.603 72.7037 151 75.5 151C78.2963 151 80.6931 148.603 80.6931 145.807V130.427C80.6931 127.631 78.2963 125.234 75.5 125.234Z" fill="white"/>
<path id="Vector_3" d="M128.829 121.639L117.844 110.653C116.046 108.656 112.651 108.656 110.653 110.653C108.656 112.651 108.656 115.847 110.653 117.844L121.639 128.829C123.636 130.827 126.832 130.827 128.829 128.829C130.827 126.832 130.827 123.636 128.829 121.639Z" fill="white"/>
<path id="Vector_4" d="M75.5 0C72.7037 0 70.3069 2.39682 70.3069 5.19312V20.5727C70.3069 23.369 72.7037 25.7659 75.5 25.7659C78.2963 25.7659 80.6931 23.369 80.6931 20.5727V5.19312C80.6931 2.39682 78.2963 0 75.5 0Z" fill="white"/>
<path id="Vector_5" d="M129.029 22.1706C127.032 20.1733 123.836 20.1733 121.839 22.1706L110.853 33.1561C108.856 35.1534 108.856 38.3492 110.853 40.3466C112.651 42.3439 116.046 42.3439 118.044 40.3466L129.029 29.3611C131.026 27.3638 131.026 24.168 129.029 22.1706Z" fill="white"/>
<path id="Vector_6" d="M20.5727 70.3069H5.19312C2.39682 70.3069 0 72.7037 0 75.5C0 78.2963 2.19709 80.6931 5.19312 80.6931H20.5727C23.369 80.6931 25.7659 78.2963 25.7659 75.5C25.7659 72.7037 23.369 70.3069 20.5727 70.3069Z" fill="white"/>
<path id="Vector_7" d="M40.1468 110.653C38.3492 108.656 34.9537 108.656 32.9564 110.653L21.9709 121.639C19.9735 123.636 19.9735 126.832 21.9709 128.829C23.9683 130.827 27.164 130.827 29.1614 128.829L40.1468 117.844C42.1442 115.847 42.1442 112.651 40.1468 110.653Z" fill="white"/>
<path id="Vector_8" d="M40.1468 33.1561L29.1614 22.1706C27.164 20.1733 23.9683 20.1733 21.9709 22.1706C19.9735 24.168 19.9735 27.3638 21.9709 29.3611L32.9564 40.3466C34.9537 42.3439 38.1495 42.3439 40.1468 40.3466C42.1442 38.3492 42.1442 35.1534 40.1468 33.1561Z" fill="white"/>
</g>
</g>
</svg>
