<!-- Generated by IcoMoon.io -->
<svg version="1.1" xmlns="http://www.w3.org/2000/svg" width="640" height="640" viewBox="0 0 640 640">
<title></title>
<g id="icomoon-ignore">
</g>
<path fill="#000" d="M203.264 404.416c4.256 11.392-113.248 116.288-44.704 201.312 16.032 19.872 70.432-95.2 147.68-147.264 42.592-28.768 141.76-89.952 141.76-123.776v-218.944c0-40.672-157.248-83.744-276.736-83.744-43.808 0-107.264 274.432-107.264 318.048 0 43.744 135.072 42.976 139.264 54.368zM480 401.376c21.056 0 96-12.8 96-99.936v-155.136c0-87.072-74.944-96.672-96-96.672-21.024 0 32 18.304 32 72.32v203.936c0 56.576-53.024 75.488-32 75.488z"></path>
</svg>
