<!-- Generated by IcoMoon.io -->
<svg version="1.1" xmlns="http://www.w3.org/2000/svg" width="640" height="640" viewBox="0 0 640 640">
<title></title>
<g id="icomoon-ignore">
</g>
<path fill="#000" d="M436.736 235.584c-4.256-11.36 113.248-116.288 44.736-201.312-16.032-19.872-70.432 95.2-147.68 147.296-42.624 28.736-141.792 89.92-141.792 123.744v218.944c0 40.672 157.248 83.744 276.736 83.744 43.808 0 107.264-274.432 107.264-318.016 0-43.776-135.072-43.008-139.264-54.4zM160 238.624c-21.056 0-96 12.8-96 99.936v155.136c0 87.072 74.944 96.672 96 96.672 21.024 0-32-18.304-32-72.32v-203.936c0-56.576 53.024-75.488 32-75.488z"></path>
</svg>
