<!-- Generated by IcoMoon.io -->
<svg version="1.1" xmlns="http://www.w3.org/2000/svg" width="768" height="768" viewBox="0 0 768 768">
<title></title>
<g id="icomoon-ignore">
</g>
<path fill="#000" d="M448 384c0-17.664-7.2-33.696-18.752-45.248s-27.584-18.752-45.248-18.752-33.696 7.2-45.248 18.752-18.752 27.584-18.752 45.248 7.2 33.696 18.752 45.248 27.584 18.752 45.248 18.752 33.696-7.2 45.248-18.752 18.752-27.584 18.752-45.248zM448 160c0-17.664-7.2-33.696-18.752-45.248s-27.584-18.752-45.248-18.752-33.696 7.2-45.248 18.752-18.752 27.584-18.752 45.248 7.2 33.696 18.752 45.248 27.584 18.752 45.248 18.752 33.696-7.2 45.248-18.752 18.752-27.584 18.752-45.248zM448 608c0-17.664-7.2-33.696-18.752-45.248s-27.584-18.752-45.248-18.752-33.696 7.2-45.248 18.752-18.752 27.584-18.752 45.248 7.2 33.696 18.752 45.248 27.584 18.752 45.248 18.752 33.696-7.2 45.248-18.752 18.752-27.584 18.752-45.248z"></path>
</svg>
