<svg width="512" height="512" viewBox="0 0 512 512" fill="none" xmlns="http://www.w3.org/2000/svg">
<g clip-path="url(#clip0)">
<path d="M500.94 191.81H31.606C25.718 191.81 20.939 196.589 20.939 202.477V458.477C20.939 487.874 44.854 511.81 74.272 511.81H458.272C487.691 511.81 511.605 487.874 511.605 458.477V202.477C511.606 196.588 506.828 191.81 500.94 191.81ZM490.273 458.476C490.273 476.119 475.916 490.476 458.273 490.476H74.273C56.63 490.476 42.273 476.119 42.273 458.476V213.143H490.273V458.476Z" fill="#1A73E8"/>
<path d="M511.265 93.1L493.11 24.215C488.929 7.46799 471.82 -3.04901 454.86 0.790994L25.078 102.764C16.63 104.684 9.483 109.825 4.939 117.207C0.395 124.588 -0.949 133.292 1.184 141.74L21.28 221.185C22.475 226.006 26.827 229.228 31.605 229.228C32.458 229.228 33.333 229.143 34.25 228.908C39.946 227.479 43.402 221.676 41.951 215.959L40.778 211.33L503.306 106.242C506.122 105.581 508.575 103.831 510.069 101.357C511.585 98.882 511.99 95.895 511.265 93.1ZM35.553 190.636L21.857 136.556C21.153 133.74 21.622 130.839 23.116 128.364C24.631 125.911 27.02 124.204 29.921 123.521L459.702 21.57C460.47 21.378 461.259 21.293 462.027 21.293C466.806 21.293 471.222 24.578 472.438 29.506L487.819 87.853L35.553 190.636Z" fill="#1A73E8"/>
<path d="M121.718 192.919C116.427 190.338 110.07 192.428 107.382 197.698L64.715 283.031C62.091 288.3 64.224 294.7 69.494 297.346C71.051 298.114 72.673 298.477 74.273 298.477C78.177 298.477 81.953 296.322 83.83 292.568L126.497 207.235C129.121 201.964 126.987 195.564 121.718 192.919Z" fill="#1A73E8"/>
<path d="M228.364 192.919C223.095 190.338 216.695 192.428 214.049 197.698L171.382 283.031C168.758 288.3 170.891 294.7 176.161 297.346C177.718 298.114 179.34 298.477 180.94 298.477C184.844 298.477 188.62 296.322 190.476 292.568L233.143 207.235C235.766 201.964 233.633 195.564 228.364 192.919Z" fill="#1A73E8"/>
<path d="M335.03 192.919C329.782 190.338 323.382 192.428 320.715 197.698L278.048 283.031C275.424 288.3 277.557 294.7 282.827 297.346C284.384 298.114 286.006 298.477 287.606 298.477C291.51 298.477 295.286 296.322 297.142 292.568L339.809 207.235C342.433 201.964 340.299 195.564 335.03 192.919Z" fill="#1A73E8"/>
<path d="M441.697 192.919C436.406 190.338 430.049 192.428 427.382 197.698L384.715 283.031C382.091 288.3 384.224 294.7 389.494 297.346C391.051 298.114 392.673 298.477 394.273 298.477C398.177 298.477 401.953 296.322 403.809 292.568L446.476 207.235C449.099 201.964 446.966 195.564 441.697 192.919Z" fill="#1A73E8"/>
<path d="M500.94 277.143H31.606C25.718 277.143 20.939 281.922 20.939 287.81C20.939 293.698 25.718 298.477 31.606 298.477H500.94C506.849 298.477 511.607 293.698 511.607 287.81C511.607 281.922 506.828 277.143 500.94 277.143Z" fill="#1A73E8"/>
<path d="M134.753 173.186L61.281 99.714C57.121 95.554 50.358 95.554 46.198 99.714C42.038 103.874 42.038 110.637 46.198 114.797L119.67 188.29C121.761 190.359 124.491 191.405 127.222 191.405C129.953 191.405 132.683 190.36 134.753 188.269C138.913 184.108 138.913 177.346 134.753 173.186Z" fill="#1A73E8"/>
<path d="M239.115 149.484L165.58 76.012C161.42 71.852 154.657 71.852 150.497 76.012C146.337 80.172 146.337 86.935 150.497 91.095L224.012 164.567C226.103 166.636 228.833 167.682 231.564 167.682C234.295 167.682 237.025 166.637 239.116 164.567C243.276 160.407 243.276 153.644 239.115 149.484Z" fill="#1A73E8"/>
<path d="M343.393 125.783L269.985 52.29C265.825 48.13 259.062 48.13 254.902 52.29C250.742 56.45 250.742 63.213 254.902 67.373L328.31 140.866C330.401 142.935 333.131 143.981 335.862 143.981C338.593 143.981 341.323 142.957 343.393 140.866C347.553 136.706 347.553 129.943 343.393 125.783Z" fill="#1A73E8"/>
<path d="M447.628 102.103L374.198 28.61C370.038 24.45 363.275 24.45 359.115 28.61C354.955 32.77 354.955 39.533 359.115 43.693L432.544 117.186C434.635 119.255 437.365 120.301 440.096 120.301C442.827 120.301 445.557 119.256 447.627 117.186C451.788 113.026 451.788 106.263 447.628 102.103Z" fill="#1A73E8"/>
</g>
<defs>
<clipPath id="clip0">
<rect width="511.81" height="511.81" fill="white"/>
</clipPath>
</defs>
</svg>
