<svg width="668" height="204" viewBox="0 0 668 204" fill="none" xmlns="http://www.w3.org/2000/svg">
<rect x="349.5" y="34.5" width="196" height="166" rx="11.5" stroke="#1A73E8" stroke-width="7"/>
<path d="M17.28 164C16.032 164 14.976 163.616 14.112 162.848C13.344 161.984 12.96 160.928 12.96 159.68V89.552C12.96 88.208 13.344 87.152 14.112 86.384C14.976 85.616 16.032 85.232 17.28 85.232C18.624 85.232 19.68 85.616 20.448 86.384C21.216 87.152 21.6 88.208 21.6 89.552V95.168C24.288 91.712 27.552 89.024 31.392 87.104C35.328 85.184 39.6 84.224 44.208 84.224C49.872 84.224 54.912 85.616 59.328 88.4C63.744 91.088 67.2 94.832 69.696 99.632C72.288 94.832 75.888 91.088 80.496 88.4C85.104 85.616 90.288 84.224 96.048 84.224C101.904 84.224 107.04 85.664 111.456 88.544C115.872 91.424 119.328 95.408 121.824 100.496C124.416 105.584 125.712 111.44 125.712 118.064V159.68C125.712 160.928 125.328 161.984 124.56 162.848C123.792 163.616 122.736 164 121.392 164C120.144 164 119.088 163.616 118.224 162.848C117.456 161.984 117.072 160.928 117.072 159.68V118.064C117.072 110.672 115.104 104.624 111.168 99.92C107.328 95.216 102.288 92.864 96.048 92.864C89.424 92.864 84 95.072 79.776 99.488C75.648 103.808 73.68 109.664 73.872 117.056C73.872 117.344 73.872 117.68 73.872 118.064V159.68C73.872 160.928 73.488 161.984 72.72 162.848C71.952 163.616 70.896 164 69.552 164C68.304 164 67.248 163.616 66.384 162.848C65.616 161.984 65.232 160.928 65.232 159.68V118.064C65.232 110.672 63.264 104.624 59.328 99.92C55.488 95.216 50.448 92.864 44.208 92.864C37.584 92.864 32.16 94.976 27.936 99.2C23.712 103.424 21.6 108.896 21.6 115.616V159.68C21.6 160.928 21.216 161.984 20.448 162.848C19.68 163.616 18.624 164 17.28 164ZM186.21 164.864C178.53 164.864 171.618 163.136 165.474 159.68C159.426 156.128 154.626 151.328 151.074 145.28C147.618 139.136 145.89 132.272 145.89 124.688C145.89 117.008 147.618 110.144 151.074 104.096C154.626 97.952 159.426 93.152 165.474 89.696C171.618 86.144 178.53 84.368 186.21 84.368C193.89 84.368 200.754 86.144 206.802 89.696C212.85 93.152 217.602 97.952 221.058 104.096C224.61 110.144 226.386 117.008 226.386 124.688C226.386 132.272 224.61 139.136 221.058 145.28C217.602 151.328 212.85 156.128 206.802 159.68C200.754 163.136 193.89 164.864 186.21 164.864ZM186.21 156.8C192.258 156.8 197.634 155.408 202.338 152.624C207.138 149.744 210.882 145.904 213.57 141.104C216.354 136.208 217.746 130.736 217.746 124.688C217.746 118.544 216.354 113.072 213.57 108.272C210.882 103.376 207.138 99.536 202.338 96.752C197.634 93.872 192.258 92.432 186.21 92.432C180.258 92.432 174.882 93.872 170.082 96.752C165.282 99.536 161.49 103.376 158.706 108.272C155.922 113.072 154.53 118.544 154.53 124.688C154.53 130.736 155.922 136.208 158.706 141.104C161.49 145.904 165.282 149.744 170.082 152.624C174.882 155.408 180.258 156.8 186.21 156.8ZM270.657 164.144C268.833 164.144 267.489 163.136 266.625 161.12L233.793 90.848C233.409 89.792 233.409 88.784 233.793 87.824C234.177 86.768 234.897 86 235.953 85.52C237.009 85.04 238.017 84.992 238.977 85.376C240.033 85.76 240.801 86.48 241.281 87.536L270.801 151.472L299.889 87.392C300.369 86.336 301.137 85.616 302.193 85.232C303.345 84.848 304.449 84.896 305.505 85.376C306.561 85.856 307.281 86.624 307.665 87.68C308.145 88.64 308.145 89.648 307.665 90.704L275.265 161.12C274.305 163.136 272.769 164.144 270.657 164.144ZM330.941 164C329.693 164 328.637 163.616 327.773 162.848C327.005 161.984 326.621 160.928 326.621 159.68V89.552C326.621 88.208 327.005 87.152 327.773 86.384C328.637 85.616 329.693 85.232 330.941 85.232C332.285 85.232 333.341 85.616 334.109 86.384C334.877 87.152 335.261 88.208 335.261 89.552V159.68C335.261 160.928 334.877 161.984 334.109 162.848C333.341 163.616 332.285 164 330.941 164ZM330.797 68.672C328.973 68.672 327.389 68.048 326.045 66.8C324.797 65.456 324.173 63.824 324.173 61.904C324.173 59.696 324.845 58.064 326.189 57.008C327.629 55.856 329.213 55.28 330.941 55.28C332.573 55.28 334.061 55.856 335.405 57.008C336.845 58.064 337.565 59.696 337.565 61.904C337.565 63.824 336.893 65.456 335.549 66.8C334.301 68.048 332.717 68.672 330.797 68.672ZM400.101 164.864C392.421 164.864 385.509 163.136 379.365 159.68C373.317 156.128 368.517 151.328 364.965 145.28C361.509 139.136 359.781 132.272 359.781 124.688C359.781 117.008 361.509 110.144 364.965 104.096C368.517 97.952 373.317 93.152 379.365 89.696C385.509 86.144 392.421 84.368 400.101 84.368C407.781 84.368 414.645 86.144 420.693 89.696C426.741 93.152 431.493 97.952 434.949 104.096C438.501 110.144 440.277 117.008 440.277 124.688C440.277 132.272 438.501 139.136 434.949 145.28C431.493 151.328 426.741 156.128 420.693 159.68C414.645 163.136 407.781 164.864 400.101 164.864ZM400.101 156.8C406.149 156.8 411.525 155.408 416.229 152.624C421.029 149.744 424.773 145.904 427.461 141.104C430.245 136.208 431.637 130.736 431.637 124.688C431.637 118.544 430.245 113.072 427.461 108.272C424.773 103.376 421.029 99.536 416.229 96.752C411.525 93.872 406.149 92.432 400.101 92.432C394.149 92.432 388.773 93.872 383.973 96.752C379.173 99.536 375.381 103.376 372.597 108.272C369.813 113.072 368.421 118.544 368.421 124.688C368.421 130.736 369.813 136.208 372.597 141.104C375.381 145.904 379.173 149.744 383.973 152.624C388.773 155.408 394.149 156.8 400.101 156.8ZM466.155 164C464.907 164 463.851 163.616 462.987 162.848C462.219 161.984 461.835 160.928 461.835 159.68V89.552C461.835 88.208 462.219 87.152 462.987 86.384C463.851 85.616 464.907 85.232 466.155 85.232C467.499 85.232 468.555 85.616 469.323 86.384C470.091 87.152 470.475 88.208 470.475 89.552V97.04C473.643 93.104 477.579 89.984 482.283 87.68C487.083 85.376 492.267 84.224 497.835 84.224C504.747 84.224 510.939 85.664 516.411 88.544C521.979 91.328 526.347 95.456 529.515 100.928C532.683 106.304 534.267 112.976 534.267 120.944V159.68C534.267 160.928 533.835 161.984 532.971 162.848C532.203 163.616 531.195 164 529.947 164C528.699 164 527.643 163.616 526.779 162.848C526.011 161.984 525.627 160.928 525.627 159.68V120.944C525.627 114.608 524.379 109.376 521.883 105.248C519.483 101.12 516.171 98.048 511.947 96.032C507.819 93.92 503.115 92.864 497.835 92.864C492.651 92.864 487.995 93.872 483.867 95.888C479.739 97.808 476.475 100.496 474.075 103.952C471.675 107.408 470.475 111.296 470.475 115.616V159.68C470.475 160.928 470.091 161.984 469.323 162.848C468.555 163.616 467.499 164 466.155 164Z" fill="#1A73E8"/>
<rect x="407.687" width="46.7961" height="4" rx="2" transform="rotate(42.1971 407.687 0)" fill="#1A73E8"/>
<rect x="493.502" y="9.05756" width="43.0713" height="4" rx="2" transform="rotate(139.853 493.502 9.05756)" fill="#1A73E8"/>
</svg>
