<svg width="553" height="179" viewBox="0 0 553 179" fill="none" xmlns="http://www.w3.org/2000/svg">
<rect x="352.5" y="30.5" width="190" height="145" rx="11.5" stroke="#1A73E8" stroke-width="7"/>
<path d="M17.28 150C16.032 150 14.976 149.616 14.112 148.848C13.344 147.984 12.96 146.928 12.96 145.68V75.552C12.96 74.208 13.344 73.152 14.112 72.384C14.976 71.616 16.032 71.232 17.28 71.232C18.624 71.232 19.68 71.616 20.448 72.384C21.216 73.152 21.6 74.208 21.6 75.552V81.168C24.288 77.712 27.552 75.024 31.392 73.104C35.328 71.184 39.6 70.224 44.208 70.224C49.872 70.224 54.912 71.616 59.328 74.4C63.744 77.088 67.2 80.832 69.696 85.632C72.288 80.832 75.888 77.088 80.496 74.4C85.104 71.616 90.288 70.224 96.048 70.224C101.904 70.224 107.04 71.664 111.456 74.544C115.872 77.424 119.328 81.408 121.824 86.496C124.416 91.584 125.712 97.44 125.712 104.064V145.68C125.712 146.928 125.328 147.984 124.56 148.848C123.792 149.616 122.736 150 121.392 150C120.144 150 119.088 149.616 118.224 148.848C117.456 147.984 117.072 146.928 117.072 145.68V104.064C117.072 96.672 115.104 90.624 111.168 85.92C107.328 81.216 102.288 78.864 96.048 78.864C89.424 78.864 84 81.072 79.776 85.488C75.648 89.808 73.68 95.664 73.872 103.056C73.872 103.344 73.872 103.68 73.872 104.064V145.68C73.872 146.928 73.488 147.984 72.72 148.848C71.952 149.616 70.896 150 69.552 150C68.304 150 67.248 149.616 66.384 148.848C65.616 147.984 65.232 146.928 65.232 145.68V104.064C65.232 96.672 63.264 90.624 59.328 85.92C55.488 81.216 50.448 78.864 44.208 78.864C37.584 78.864 32.16 80.976 27.936 85.2C23.712 89.424 21.6 94.896 21.6 101.616V145.68C21.6 146.928 21.216 147.984 20.448 148.848C19.68 149.616 18.624 150 17.28 150ZM186.21 150.864C178.53 150.864 171.618 149.136 165.474 145.68C159.426 142.128 154.626 137.328 151.074 131.28C147.618 125.136 145.89 118.272 145.89 110.688C145.89 103.008 147.618 96.144 151.074 90.096C154.626 83.952 159.426 79.152 165.474 75.696C171.618 72.144 178.53 70.368 186.21 70.368C193.89 70.368 200.754 72.144 206.802 75.696C212.85 79.152 217.602 83.952 221.058 90.096C224.61 96.144 226.386 103.008 226.386 110.688C226.386 118.272 224.61 125.136 221.058 131.28C217.602 137.328 212.85 142.128 206.802 145.68C200.754 149.136 193.89 150.864 186.21 150.864ZM186.21 142.8C192.258 142.8 197.634 141.408 202.338 138.624C207.138 135.744 210.882 131.904 213.57 127.104C216.354 122.208 217.746 116.736 217.746 110.688C217.746 104.544 216.354 99.072 213.57 94.272C210.882 89.376 207.138 85.536 202.338 82.752C197.634 79.872 192.258 78.432 186.21 78.432C180.258 78.432 174.882 79.872 170.082 82.752C165.282 85.536 161.49 89.376 158.706 94.272C155.922 99.072 154.53 104.544 154.53 110.688C154.53 116.736 155.922 122.208 158.706 127.104C161.49 131.904 165.282 135.744 170.082 138.624C174.882 141.408 180.258 142.8 186.21 142.8ZM270.657 150.144C268.833 150.144 267.489 149.136 266.625 147.12L233.793 76.848C233.409 75.792 233.409 74.784 233.793 73.824C234.177 72.768 234.897 72 235.953 71.52C237.009 71.04 238.017 70.992 238.977 71.376C240.033 71.76 240.801 72.48 241.281 73.536L270.801 137.472L299.889 73.392C300.369 72.336 301.137 71.616 302.193 71.232C303.345 70.848 304.449 70.896 305.505 71.376C306.561 71.856 307.281 72.624 307.665 73.68C308.145 74.64 308.145 75.648 307.665 76.704L275.265 147.12C274.305 149.136 272.769 150.144 270.657 150.144ZM330.941 150C329.693 150 328.637 149.616 327.773 148.848C327.005 147.984 326.621 146.928 326.621 145.68V75.552C326.621 74.208 327.005 73.152 327.773 72.384C328.637 71.616 329.693 71.232 330.941 71.232C332.285 71.232 333.341 71.616 334.109 72.384C334.877 73.152 335.261 74.208 335.261 75.552V145.68C335.261 146.928 334.877 147.984 334.109 148.848C333.341 149.616 332.285 150 330.941 150ZM330.797 54.672C328.973 54.672 327.389 54.048 326.045 52.8C324.797 51.456 324.173 49.824 324.173 47.904C324.173 45.696 324.845 44.064 326.189 43.008C327.629 41.856 329.213 41.28 330.941 41.28C332.573 41.28 334.061 41.856 335.405 43.008C336.845 44.064 337.565 45.696 337.565 47.904C337.565 49.824 336.893 51.456 335.549 52.8C334.301 54.048 332.717 54.672 330.797 54.672ZM400.101 150.864C392.421 150.864 385.509 149.136 379.365 145.68C373.317 142.128 368.517 137.328 364.965 131.28C361.509 125.136 359.781 118.272 359.781 110.688C359.781 103.008 361.509 96.144 364.965 90.096C368.517 83.952 373.317 79.152 379.365 75.696C385.509 72.144 392.421 70.368 400.101 70.368C407.781 70.368 414.645 72.144 420.693 75.696C426.741 79.152 431.493 83.952 434.949 90.096C438.501 96.144 440.277 103.008 440.277 110.688C440.277 118.272 438.501 125.136 434.949 131.28C431.493 137.328 426.741 142.128 420.693 145.68C414.645 149.136 407.781 150.864 400.101 150.864ZM400.101 142.8C406.149 142.8 411.525 141.408 416.229 138.624C421.029 135.744 424.773 131.904 427.461 127.104C430.245 122.208 431.637 116.736 431.637 110.688C431.637 104.544 430.245 99.072 427.461 94.272C424.773 89.376 421.029 85.536 416.229 82.752C411.525 79.872 406.149 78.432 400.101 78.432C394.149 78.432 388.773 79.872 383.973 82.752C379.173 85.536 375.381 89.376 372.597 94.272C369.813 99.072 368.421 104.544 368.421 110.688C368.421 116.736 369.813 122.208 372.597 127.104C375.381 131.904 379.173 135.744 383.973 138.624C388.773 141.408 394.149 142.8 400.101 142.8ZM466.155 150C464.907 150 463.851 149.616 462.987 148.848C462.219 147.984 461.835 146.928 461.835 145.68V75.552C461.835 74.208 462.219 73.152 462.987 72.384C463.851 71.616 464.907 71.232 466.155 71.232C467.499 71.232 468.555 71.616 469.323 72.384C470.091 73.152 470.475 74.208 470.475 75.552V83.04C473.643 79.104 477.579 75.984 482.283 73.68C487.083 71.376 492.267 70.224 497.835 70.224C504.747 70.224 510.939 71.664 516.411 74.544C521.979 77.328 526.347 81.456 529.515 86.928C532.683 92.304 534.267 98.976 534.267 106.944V145.68C534.267 146.928 533.835 147.984 532.971 148.848C532.203 149.616 531.195 150 529.947 150C528.699 150 527.643 149.616 526.779 148.848C526.011 147.984 525.627 146.928 525.627 145.68V106.944C525.627 100.608 524.379 95.376 521.883 91.248C519.483 87.12 516.171 84.048 511.947 82.032C507.819 79.92 503.115 78.864 497.835 78.864C492.651 78.864 487.995 79.872 483.867 81.888C479.739 83.808 476.475 86.496 474.075 89.952C471.675 93.408 470.475 97.296 470.475 101.616V145.68C470.475 146.928 470.091 147.984 469.323 148.848C468.555 149.616 467.499 150 466.155 150Z" fill="#1A73E8"/>
<rect width="42.4589" height="3.69797" rx="1.84899" transform="matrix(0.672281 0.740296 -0.598201 0.801346 413.212 0)" fill="#1A73E8"/>
<rect width="38.8074" height="3.72259" rx="1.86129" transform="matrix(-0.698512 0.715599 -0.570423 -0.821351 483.231 5.05756)" fill="#1A73E8"/>
</svg>
